<svg xmlns="http://www.w3.org/2000/svg" viewBox="0 0 1000 620" role="img"
     aria-label="Map of Oklahoma showing 4 Move Weight Foundation chapters">
  <style>
    text { font-family: system-ui, -apple-system, "Segoe UI", sans-serif; }
    a { cursor: pointer; } a:hover text { fill: #ff922b; }
  </style>
  <path d="M352.6,84.0 942.3,92.3 943.3,160.9 966.0,312.7 963.8,554.4 920.5,539.9 909.2,524.3 880.2,511.0 872.9,523.1 844.0,522.5 837.8,515.0 811.4,528.6 800.3,521.1 776.3,527.9 754.1,548.9 745.5,536.8 722.1,526.9 697.5,526.7 689.7,510.9 661.0,541.4 652.0,524.0 639.0,529.0 629.3,517.6 603.1,506.7 583.1,524.3 574.9,505.4 558.9,502.8 550.1,487.5 528.8,481.0 514.3,493.4 505.4,481.9 483.3,482.8 459.2,470.0 436.5,470.8 429.4,444.2 394.1,441.4 380.5,445.4 356.5,418.1 347.9,419.2 359.2,152.9 162.7,142.7 34.0,134.0 39.0,65.6 142.1,73.5 352.6,84.0Z" fill="#1b2130" stroke="#e8590c" stroke-width="2.5"/>
    <a href="https://claremore.exposeoklahoma.com/" target="_blank"><title>Claremore — open the chapter</title><circle cx="835.6" cy="187.6" r="15" fill="#e8590c" opacity="0.2"><animate attributeName="r" values="11;20;11" dur="3s" repeatCount="indefinite"/></circle><circle cx="835.6" cy="187.6" r="5.5" fill="#fff"/><text x="835.6" y="167.6" text-anchor="middle" font-size="17" font-weight="800" fill="#eef2f8" stroke="#0f172a" stroke-width="3.4" paint-order="stroke" stroke-linejoin="round">Claremore</text></a>
  <a href="https://tulsa.exposeoklahoma.com/" target="_blank"><title>Tulsa — open the chapter</title><circle cx="803.8" cy="213.4" r="15" fill="#e8590c" opacity="0.2"><animate attributeName="r" values="11;20;11" dur="3s" repeatCount="indefinite"/></circle><circle cx="803.8" cy="213.4" r="5.5" fill="#fff"/><text x="803.8" y="193.4" text-anchor="middle" font-size="17" font-weight="800" fill="#eef2f8" stroke="#0f172a" stroke-width="3.4" paint-order="stroke" stroke-linejoin="round">Tulsa</text></a>
  <a href="https://miami.exposeoklahoma.com/" target="_blank"><title>Miami — open the chapter</title><circle cx="915.0" cy="108.2" r="15" fill="#e8590c" opacity="0.2"><animate attributeName="r" values="11;20;11" dur="3s" repeatCount="indefinite"/></circle><circle cx="915.0" cy="108.2" r="5.5" fill="#fff"/><text x="915.0" y="88.2" text-anchor="middle" font-size="17" font-weight="800" fill="#eef2f8" stroke="#0f172a" stroke-width="3.4" paint-order="stroke" stroke-linejoin="round">Miami</text></a>
  <a href="https://okc.exposeoklahoma.com/" target="_blank"><title>Oklahoma City — open the chapter</title><circle cx="626.6" cy="303.0" r="15" fill="#e8590c" opacity="0.2"><animate attributeName="r" values="11;20;11" dur="3s" repeatCount="indefinite"/></circle><circle cx="626.6" cy="303.0" r="5.5" fill="#fff"/><text x="626.6" y="283.0" text-anchor="middle" font-size="17" font-weight="800" fill="#eef2f8" stroke="#0f172a" stroke-width="3.4" paint-order="stroke" stroke-linejoin="round">Oklahoma City</text></a>
</svg>
